<?xml version="1.0" encoding="utf-8"?>
<!-- Generator: Adobe Illustrator 25.4.1, SVG Export Plug-In . SVG Version: 6.00 Build 0)  -->
<svg version="1.1" id="Capa_1" xmlns="http://www.w3.org/2000/svg" xmlns:xlink="http://www.w3.org/1999/xlink" x="0px" y="0px"
	 viewBox="0 0 161 161" style="enable-background:new 0 0 161 161;" xml:space="preserve">
<style type="text/css">
	.st0{fill:url(#SVGID_1_);}
	.st1{fill:url(#SVGID_00000016060846020811575910000006100069726655702460_);}
	.st2{opacity:0.53;fill:url(#SVGID_00000130629897622157846780000008134764310119558793_);enable-background:new    ;}
	.st3{opacity:0.53;fill:url(#SVGID_00000172442776552998642380000017716719315001220530_);enable-background:new    ;}
	.st4{opacity:0.53;fill:url(#SVGID_00000168807981762356264360000007164242911985668512_);enable-background:new    ;}
	.st5{opacity:0.53;fill:url(#SVGID_00000108993488183220402990000015543968312943453611_);enable-background:new    ;}
	.st6{opacity:0.53;fill:url(#SVGID_00000180367672193085088470000009798049583126631296_);enable-background:new    ;}
	.st7{opacity:0.53;fill:url(#SVGID_00000057835118521863290730000015546171270618185370_);enable-background:new    ;}
	.st8{opacity:0.53;fill:url(#SVGID_00000029042022481972118840000008331953008003462548_);enable-background:new    ;}
	.st9{opacity:0.53;fill:url(#SVGID_00000104669320070553490960000009895170326722089871_);enable-background:new    ;}
	.st10{opacity:0.53;fill:url(#SVGID_00000173852225757026549140000003893531591485312150_);enable-background:new    ;}
	.st11{opacity:0.53;fill:url(#SVGID_00000062881342909613663450000006325471020452234148_);enable-background:new    ;}
	.st12{opacity:0.53;fill:url(#SVGID_00000032649881524508815310000008284849936862521754_);enable-background:new    ;}
	.st13{opacity:0.53;fill:url(#SVGID_00000074442934124558214100000002688024430775925151_);enable-background:new    ;}
	.st14{opacity:0.53;fill:url(#SVGID_00000141444175306160391010000011042556810850485944_);enable-background:new    ;}
	.st15{opacity:0.53;fill:url(#SVGID_00000120525893350713993660000008861708402411999393_);enable-background:new    ;}
	.st16{opacity:0.53;fill:url(#SVGID_00000104686928136680216510000009513936770095672207_);enable-background:new    ;}
	.st17{opacity:0.53;fill:url(#SVGID_00000180345127368911376000000009474861382117239424_);enable-background:new    ;}
	.st18{fill:url(#SVGID_00000103257105608234662670000013154044172192268166_);}
	.st19{fill:url(#SVGID_00000177460942179796480040000005622247157702610840_);}
	
		.st20{opacity:0.36;fill:none;stroke:url(#SVGID_00000157999033323226946280000014312705655336118202_);stroke-miterlimit:10;enable-background:new    ;}
	
		.st21{opacity:0.24;fill:none;stroke:url(#SVGID_00000026125652298044283470000000529141931544212398_);stroke-width:3.53;stroke-linecap:round;stroke-linejoin:round;enable-background:new    ;}
	.st22{fill:url(#SVGID_00000136413458452907384570000000665388508494533521_);}
	.st23{fill:url(#SVGID_00000052089851386267713420000000138887009013577637_);}
	.st24{fill:none;stroke:url(#SVGID_00000075144861034695084660000002209822287983055492_);stroke-width:1.36;stroke-miterlimit:10;}
	.st25{fill:#E30E19;}
	.st26{fill:none;stroke:#E30915;stroke-width:1.76;stroke-linecap:round;stroke-linejoin:round;}
</style>
<g>
	<g id="Capa_2_00000095320892440748514410000011367436363696600237_">
		<g id="Capa_1-2">
			
				<image style="display:none;overflow:visible;opacity:0.75;enable-background:new    ;" width="149" height="149" xlink:href="E49EA696.png" >
			</image>
			
				<linearGradient id="SVGID_1_" gradientUnits="userSpaceOnUse" x1="28.6383" y1="514.2939" x2="132.0783" y2="514.2939" gradientTransform="matrix(1 0 0 1 1.170000e-02 -434.0039)">
				<stop  offset="0" style="stop-color:#26272B"/>
				<stop  offset="1" style="stop-color:#34393F"/>
			</linearGradient>
			<circle class="st0" cx="80.4" cy="80.3" r="51.7"/>
			
				<image style="display:none;overflow:visible;opacity:0.75;enable-background:new    ;" width="149" height="150" xlink:href="E49EA69A.png"  transform="matrix(1 0 0 1 12 11)">
			</image>
			
				<linearGradient id="SVGID_00000026144685569560384100000001632358719923280771_" gradientUnits="userSpaceOnUse" x1="28.6473" y1="514.0682" x2="132.0873" y2="514.0682" gradientTransform="matrix(1 0 0 1 2.727007e-03 -433.9982)">
				<stop  offset="0" style="stop-color:#333333"/>
				<stop  offset="1" style="stop-color:#000000"/>
			</linearGradient>
			<circle style="fill:url(#SVGID_00000026144685569560384100000001632358719923280771_);" cx="80.4" cy="80.1" r="51.7"/>
			
				<linearGradient id="SVGID_00000056429127585692277290000017233605961567128250_" gradientUnits="userSpaceOnUse" x1="80.365" y1="468.42" x2="80.365" y2="466.35" gradientTransform="matrix(1 0 0 1 0 -434)">
				<stop  offset="0" style="stop-color:#000000"/>
				<stop  offset="1" style="stop-color:#333333"/>
			</linearGradient>
			
				<path style="opacity:0.53;fill:url(#SVGID_00000056429127585692277290000017233605961567128250_);enable-background:new    ;" d="
				M81.4,33.4c0,0.6-0.5,1-1,1s-1-0.5-1-1s0.5-1,1-1C80.9,32.3,81.4,32.8,81.4,33.4z"/>
			
				<linearGradient id="SVGID_00000108291428078015454210000010051107244469763456_" gradientUnits="userSpaceOnUse" x1="-714.1575" y1="-1005.1891" x2="-714.1575" y2="-1007.2591" gradientTransform="matrix(0.7071 0.7071 -0.7071 0.7071 -126.1223 1342.8528)">
				<stop  offset="0" style="stop-color:#000000"/>
				<stop  offset="1" style="stop-color:#333333"/>
			</linearGradient>
			
				<path style="opacity:0.53;fill:url(#SVGID_00000108291428078015454210000010051107244469763456_);enable-background:new    ;" d="
				M81.1,127.1c-0.4,0.4-1,0.3-1.4-0.1c-0.4-0.4-0.3-1,0.1-1.4c0.4-0.3,1-0.3,1.4,0C81.5,126,81.5,126.7,81.1,127.1z"/>
			
				<linearGradient id="SVGID_00000090292597874838464890000007031646344535059088_" gradientUnits="userSpaceOnUse" x1="-2017.475" y1="2947.4199" x2="-2017.475" y2="2945.3501" gradientTransform="matrix(6.123234e-17 -1 1 6.123234e-17 -2912.49 -1937.61)">
				<stop  offset="0" style="stop-color:#000000"/>
				<stop  offset="1" style="stop-color:#333333"/>
			</linearGradient>
			
				<path style="opacity:0.53;fill:url(#SVGID_00000090292597874838464890000007031646344535059088_);enable-background:new    ;" d="
				M33.9,78.8c0.6,0,1,0.5,1,1c0,0.6-0.5,1-1,1s-1-0.5-1-1C32.8,79.3,33.3,78.8,33.9,78.8z"/>
			
				<linearGradient id="SVGID_00000083050452882621284680000008002529214351040180_" gradientUnits="userSpaceOnUse" x1="-444.6793" y1="2231.1519" x2="-444.6793" y2="2229.0818" gradientTransform="matrix(0.7071 -0.7071 0.7071 0.7071 -1135.6371 -1811.4778)">
				<stop  offset="0" style="stop-color:#000000"/>
				<stop  offset="1" style="stop-color:#333333"/>
			</linearGradient>
			
				<path style="opacity:0.53;fill:url(#SVGID_00000083050452882621284680000008002529214351040180_);enable-background:new    ;" d="
				M127.6,79.1c0.4,0.4,0.4,1,0.1,1.4c0,0,0,0-0.1,0.1c-0.4,0.4-1.1,0.4-1.5,0c-0.4-0.4-0.4-1.1,0-1.5
				C126.5,78.7,127.2,78.7,127.6,79.1z"/>
			
				<linearGradient id="SVGID_00000093150660784060568430000000840923385590213032_" gradientUnits="userSpaceOnUse" x1="-455.0004" y1="2142.4807" x2="-455.0004" y2="2140.4207" gradientTransform="matrix(0.7071 -0.7071 0.7071 0.7071 -1144.9572 -1788.9778)">
				<stop  offset="0" style="stop-color:#000000"/>
				<stop  offset="1" style="stop-color:#333333"/>
			</linearGradient>
			
				<path style="opacity:0.53;fill:url(#SVGID_00000093150660784060568430000000840923385590213032_);enable-background:new    ;" d="
				M48.2,46.3c0.4,0.4,0.3,1-0.1,1.4s-1,0.3-1.4-0.1c-0.3-0.4-0.3-1,0-1.4C47.2,45.9,47.8,45.9,48.2,46.3z"/>
			
				<linearGradient id="SVGID_00000063613470556247611010000007064635672428048524_" gradientUnits="userSpaceOnUse" x1="90.735" y1="557.09" x2="90.735" y2="555.02" gradientTransform="matrix(1 0 0 1 22.5 -443.32)">
				<stop  offset="0" style="stop-color:#000000"/>
				<stop  offset="1" style="stop-color:#333333"/>
			</linearGradient>
			
				<path style="opacity:0.53;fill:url(#SVGID_00000063613470556247611010000007064635672428048524_);enable-background:new    ;" d="
				M114.3,112.7c0,0.6-0.5,1-1,1s-1-0.5-1-1s0.5-1,1-1C113.8,111.7,114.3,112.2,114.3,112.7z"/>
			
				<linearGradient id="SVGID_00000017476005431183569680000000342646198823424413_" gradientUnits="userSpaceOnUse" x1="-3691.3459" y1="2412.0093" x2="-3691.3459" y2="2409.9392" gradientTransform="matrix(-0.7071 -0.7071 0.7071 -0.7071 -4267.4678 -792.6529)">
				<stop  offset="0" style="stop-color:#000000"/>
				<stop  offset="1" style="stop-color:#333333"/>
			</linearGradient>
			
				<path style="opacity:0.53;fill:url(#SVGID_00000017476005431183569680000000342646198823424413_);enable-background:new    ;" d="
				M46.8,112c0.4-0.4,1.1-0.4,1.5,0c0.4,0.4,0.3,1-0.1,1.4s-1,0.3-1.4-0.1C46.4,113,46.4,112.4,46.8,112z"/>
			
				<linearGradient id="SVGID_00000007403648854491117620000011790971386864920477_" gradientUnits="userSpaceOnUse" x1="-2007.11" y1="3036.0801" x2="-2007.11" y2="3034.01" gradientTransform="matrix(6.123234e-17 -1 1 6.123234e-17 -2921.8101 -1960.11)">
				<stop  offset="0" style="stop-color:#000000"/>
				<stop  offset="1" style="stop-color:#333333"/>
			</linearGradient>
			
				<path style="opacity:0.53;fill:url(#SVGID_00000007403648854491117620000011790971386864920477_);enable-background:new    ;" d="
				M113.2,46c0.6,0,1,0.5,1,1s-0.4,1-1,1s-1-0.5-1-1S112.7,46,113.2,46z"/>
			
				<linearGradient id="SVGID_00000079465784961324749170000015792837949114564254_" gradientUnits="userSpaceOnUse" x1="-20.7153" y1="1358.8003" x2="-20.7153" y2="1356.7302" gradientTransform="matrix(0.9238 -0.3828 0.3828 0.9238 -438.0148 -1225.3243)">
				<stop  offset="0" style="stop-color:#000000"/>
				<stop  offset="1" style="stop-color:#333333"/>
			</linearGradient>
			
				<path style="opacity:0.53;fill:url(#SVGID_00000079465784961324749170000015792837949114564254_);enable-background:new    ;" d="
				M63.5,36.5c0.2,0.5,0,1.1-0.6,1.3c-0.5,0.2-1.1,0-1.3-0.6c-0.2-0.5,0-1,0.5-1.3C62.7,35.8,63.3,36,63.5,36.5
				C63.5,36.5,63.5,36.5,63.5,36.5z"/>
			
				<linearGradient id="SVGID_00000077282402910600556370000004874423349656833930_" gradientUnits="userSpaceOnUse" x1="-156.4243" y1="-303.1702" x2="-156.4243" y2="-305.2402" gradientTransform="matrix(0.924 0.3824 -0.3824 0.924 126.4093 463.7237)">
				<stop  offset="0" style="stop-color:#000000"/>
				<stop  offset="1" style="stop-color:#333333"/>
			</linearGradient>
			
				<path style="opacity:0.53;fill:url(#SVGID_00000077282402910600556370000004874423349656833930_);enable-background:new    ;" d="
				M99.1,123.2c-0.2,0.5-0.8,0.7-1.3,0.5s-0.7-0.8-0.5-1.3c0.2-0.5,0.8-0.7,1.3-0.5C99.1,122.1,99.3,122.6,99.1,123.2
				C99.1,123.2,99.1,123.2,99.1,123.2z"/>
			
				<linearGradient id="SVGID_00000166671489983016699680000001753754273921626554_" gradientUnits="userSpaceOnUse" x1="-2907.8118" y1="2845.6768" x2="-2907.8118" y2="2843.6067" gradientTransform="matrix(-0.3828 -0.9238 0.9238 -0.3828 -3703.8145 -1499.5852)">
				<stop  offset="0" style="stop-color:#000000"/>
				<stop  offset="1" style="stop-color:#333333"/>
			</linearGradient>
			
				<path style="opacity:0.53;fill:url(#SVGID_00000166671489983016699680000001753754273921626554_);enable-background:new    ;" d="
				M37,96.7c0.5-0.2,1.1,0.1,1.3,0.6c0.2,0.5-0.1,1.1-0.6,1.3c-0.5,0.2-1,0-1.3-0.5C36.2,97.6,36.4,97,37,96.7
				C37,96.7,37,96.7,37,96.7z"/>
			
				<linearGradient id="SVGID_00000111169175751581126830000016120323730728049824_" gradientUnits="userSpaceOnUse" x1="-1146.8569" y1="2789.5952" x2="-1146.8569" y2="2787.5254" gradientTransform="matrix(0.3824 -0.924 0.924 0.3824 -2014.7664 -2064.0193)">
				<stop  offset="0" style="stop-color:#000000"/>
				<stop  offset="1" style="stop-color:#333333"/>
			</linearGradient>
			
				<path style="opacity:0.53;fill:url(#SVGID_00000111169175751581126830000016120323730728049824_);enable-background:new    ;" d="
				M123.7,61.1c0.5,0.2,0.7,0.8,0.5,1.3s-0.8,0.7-1.3,0.5c-0.5-0.2-0.7-0.8-0.5-1.3C122.6,61.2,123.1,60.9,123.7,61.1
				C123.7,61.1,123.7,61.1,123.7,61.1z"/>
			
				<linearGradient id="SVGID_00000034788062597568765030000014449353861574663850_" gradientUnits="userSpaceOnUse" x1="-1157.2203" y1="2700.9253" x2="-1157.2203" y2="2698.8652" gradientTransform="matrix(0.3824 -0.924 0.924 0.3824 -2014.7563 -2039.6593)">
				<stop  offset="0" style="stop-color:#000000"/>
				<stop  offset="1" style="stop-color:#333333"/>
			</linearGradient>
			
				<path style="opacity:0.53;fill:url(#SVGID_00000034788062597568765030000014449353861574663850_);enable-background:new    ;" d="
				M37.8,61.1c0.5,0.2,0.7,0.8,0.5,1.3S37.5,63.2,37,63c-0.5-0.2-0.7-0.8-0.5-1.3C36.7,61.2,37.2,60.9,37.8,61.1
				C37.8,61.1,37.8,61.1,37.8,61.1z"/>
			
				<linearGradient id="SVGID_00000177479579898483915980000014928689049672062132_" gradientUnits="userSpaceOnUse" x1="-10.3456" y1="1447.4603" x2="-10.3456" y2="1445.3901" gradientTransform="matrix(0.9238 -0.3828 0.3828 0.9238 -420.7948 -1242.5444)">
				<stop  offset="0" style="stop-color:#000000"/>
				<stop  offset="1" style="stop-color:#333333"/>
			</linearGradient>
			
				<path style="opacity:0.53;fill:url(#SVGID_00000177479579898483915980000014928689049672062132_);enable-background:new    ;" d="
				M124.3,97.2c0.2,0.5-0.1,1.1-0.6,1.3c-0.5,0.2-1.1-0.1-1.3-0.6c-0.2-0.5,0-1,0.5-1.3C123.4,96.5,124,96.7,124.3,97.2
				C124.2,97.2,124.3,97.2,124.3,97.2z"/>
			
				<linearGradient id="SVGID_00000140000130203633519400000014075758426949521048_" gradientUnits="userSpaceOnUse" x1="-4250.0034" y1="1710.4802" x2="-4250.0034" y2="1708.4103" gradientTransform="matrix(-0.924 -0.3824 0.3824 -0.924 -4518.1494 77.1563)">
				<stop  offset="0" style="stop-color:#000000"/>
				<stop  offset="1" style="stop-color:#333333"/>
			</linearGradient>
			
				<path style="opacity:0.53;fill:url(#SVGID_00000140000130203633519400000014075758426949521048_);enable-background:new    ;" d="
				M61.6,122.4c0.2-0.5,0.8-0.7,1.3-0.5s0.7,0.8,0.5,1.3c-0.2,0.5-0.8,0.7-1.3,0.5C61.7,123.6,61.4,123,61.6,122.4
				C61.6,122.5,61.6,122.4,61.6,122.4z"/>
			
				<linearGradient id="SVGID_00000140735569902515973540000015483135303595983528_" gradientUnits="userSpaceOnUse" x1="-2897.4819" y1="2934.3367" x2="-2897.4819" y2="2932.2666" gradientTransform="matrix(-0.3828 -0.9238 0.9238 -0.3828 -3721.0344 -1516.8052)">
				<stop  offset="0" style="stop-color:#000000"/>
				<stop  offset="1" style="stop-color:#333333"/>
			</linearGradient>
			
				<path style="opacity:0.53;fill:url(#SVGID_00000140735569902515973540000015483135303595983528_);enable-background:new    ;" d="
				M97.8,36c0.5-0.2,1.1,0.1,1.3,0.6c0.2,0.5-0.1,1.1-0.6,1.3c-0.5,0.2-1,0-1.3-0.5C97,36.9,97.2,36.3,97.8,36
				C97.7,36,97.7,36,97.8,36z"/>
			
				<image style="display:none;overflow:visible;opacity:0.75;enable-background:new    ;" width="126" height="126" xlink:href="E49EA69D.png"  transform="matrix(1 0 0 1 15 14)">
			</image>
			
				<linearGradient id="SVGID_00000082338444555686787860000004855186849816356010_" gradientUnits="userSpaceOnUse" x1="80.7917" y1="554.245" x2="80.7917" y2="473.885" gradientTransform="matrix(1 0 0 1 -1.170000e-02 -433.995)">
				<stop  offset="0" style="stop-color:#26272B"/>
				<stop  offset="1" style="stop-color:#34393F"/>
			</linearGradient>
			<circle style="fill:url(#SVGID_00000082338444555686787860000004855186849816356010_);" cx="80.8" cy="80.1" r="40.2"/>
			
				<image style="overflow:visible;opacity:0.5;enable-background:new    ;" width="126" height="126" xlink:href="E49EA69E.png"  transform="matrix(1 0 0 1 21 20)">
			</image>
			
				<linearGradient id="SVGID_00000064347705144088282580000008881658228167186355_" gradientUnits="userSpaceOnUse" x1="80.7917" y1="554.245" x2="80.7917" y2="473.885" gradientTransform="matrix(1 0 0 1 -1.170000e-02 -433.995)">
				<stop  offset="0" style="stop-color:#333333"/>
				<stop  offset="1" style="stop-color:#000000"/>
			</linearGradient>
			<circle style="fill:url(#SVGID_00000064347705144088282580000008881658228167186355_);" cx="80.8" cy="80.1" r="40.2"/>
			
				<linearGradient id="SVGID_00000003066213097044106770000001172696679862488737_" gradientUnits="userSpaceOnUse" x1="40.1117" y1="514.065" x2="121.4717" y2="514.065" gradientTransform="matrix(1 0 0 1 -1.170000e-02 -433.995)">
				<stop  offset="0" style="stop-color:#4D4D4D"/>
				<stop  offset="1" style="stop-color:#333333"/>
			</linearGradient>
			
				<circle style="opacity:0.36;fill:none;stroke:url(#SVGID_00000003066213097044106770000001172696679862488737_);stroke-miterlimit:10;enable-background:new    ;" cx="80.8" cy="80.1" r="40.2"/>
			
				<linearGradient id="SVGID_00000097475264545142965450000014164332312343027115_" gradientUnits="userSpaceOnUse" x1="47.4498" y1="514.2576" x2="113.9502" y2="514.2576" gradientTransform="matrix(1 0 0 1 0 -434)">
				<stop  offset="0" style="stop-color:#34393F"/>
				<stop  offset="1" style="stop-color:#26272B"/>
			</linearGradient>
			
				<path style="opacity:0.24;fill:none;stroke:url(#SVGID_00000097475264545142965450000014164332312343027115_);stroke-width:3.53;stroke-linecap:round;stroke-linejoin:round;enable-background:new    ;" d="
				M86,49c17.1,2.9,28.7,19.2,25.7,36.3S92.5,114,75.4,111.1S46.7,91.9,49.7,74.7C51.9,61.6,62.2,51.2,75.4,49"/>
			
				<image style="overflow:visible;opacity:0.7;enable-background:new    ;" width="86" height="86" xlink:href="E49EA69C.png"  transform="matrix(1 0 0 1 48.17 48.17)">
			</image>
			
				<linearGradient id="SVGID_00000015328174108488971720000016084397820088326064_" gradientUnits="userSpaceOnUse" x1="72.8135" y1="501.0823" x2="87.9265" y2="527.2576" gradientTransform="matrix(1 0 0 1 0 -434)">
				<stop  offset="0" style="stop-color:#26272B"/>
				<stop  offset="1" style="stop-color:#34393F"/>
			</linearGradient>
			<circle style="fill:url(#SVGID_00000015328174108488971720000016084397820088326064_);" cx="80.4" cy="80.2" r="15.1"/>
			
				<image style="overflow:visible;opacity:0.7;enable-background:new    ;" width="86" height="87" xlink:href="E49EA69B.png"  transform="matrix(1 0 0 1 27.17 26.17)">
			</image>
			
				<linearGradient id="SVGID_00000023254480770795866040000003782135589437747348_" gradientUnits="userSpaceOnUse" x1="72.8135" y1="501.0823" x2="87.9265" y2="527.2576" gradientTransform="matrix(1 0 0 1 0 -434)">
				<stop  offset="0" style="stop-color:#000000"/>
				<stop  offset="1" style="stop-color:#333333"/>
			</linearGradient>
			<circle style="fill:url(#SVGID_00000023254480770795866040000003782135589437747348_);" cx="80.4" cy="80.2" r="15.1"/>
			
				<linearGradient id="SVGID_00000083064937830613587250000015176130602251531667_" gradientUnits="userSpaceOnUse" x1="72.4739" y1="500.4931" x2="88.2661" y2="527.8468" gradientTransform="matrix(1 0 0 1 0 -434)">
				<stop  offset="0" style="stop-color:#333333"/>
				<stop  offset="1" style="stop-color:#4D4D4D"/>
			</linearGradient>
			
				<circle style="fill:none;stroke:url(#SVGID_00000083064937830613587250000015176130602251531667_);stroke-width:1.36;stroke-miterlimit:10;" cx="80.4" cy="80.2" r="15.1"/>
			<path class="st25" d="M80.4,83.3c-1.6,0-2.8-1.3-2.8-2.8v-4.2c0.1-1.6,1.4-2.8,3-2.7c1.4,0.1,2.6,1.2,2.7,2.7v4.2
				C83.2,82,81.9,83.3,80.4,83.3L80.4,83.3z M80.4,74.2c-1.2,0-2.1,0.9-2.1,2.1v4.2c0.1,1.2,1.1,2.1,2.3,2c1.1-0.1,1.9-0.9,2-2v-4.2
				C82.5,75.1,81.5,74.2,80.4,74.2L80.4,74.2z"/>
			<path class="st25" d="M84.5,80.6c0-0.2-0.2-0.4-0.3-0.4h0c-0.2,0-0.4,0.2-0.4,0.4l0,0c0,1.9-1.5,3.4-3.4,3.4S77,82.4,77,80.6
				c0-0.2-0.2-0.4-0.4-0.4l0,0c-0.2,0-0.4,0.2-0.4,0.4v0c0,2.1,1.6,3.9,3.7,4.1v1.2h-1.7c-0.2,0-0.4,0.2-0.4,0.4
				c0,0.2,0.2,0.4,0.4,0.4h4c0.2,0,0.4-0.2,0.4-0.4c0-0.2-0.2-0.4-0.4-0.4l0,0h-1.6v-1.2C82.8,84.4,84.5,82.7,84.5,80.6z"/>
			<path class="st26" d="M86,49c17.2,2.8,28.8,19,25.9,36.2c-2.5,15.2-15.7,26.4-31.1,26.4"/>
			<line class="st26" x1="80.8" y1="45.2" x2="80.8" y2="56.9"/>
		</g>
	</g>
</g>
</svg>
