<svg xmlns="http://www.w3.org/2000/svg" viewBox="0 0 71.41 32.72"><defs><style>.cls-1,.cls-2,.cls-23{fill:#fff;}.cls-2{font-size:2.03px;font-family:Salmond-Bold, Salmond Bold;font-weight:700;letter-spacing:0.02em;}.cls-3{letter-spacing:0.04em;}.cls-4{letter-spacing:0.02em;}.cls-5{letter-spacing:0.01em;}.cls-6{letter-spacing:0.03em;}.cls-7{letter-spacing:0.01em;}.cls-8{letter-spacing:0.03em;}.cls-9{letter-spacing:0.03em;}.cls-10{letter-spacing:0.02em;}.cls-11{letter-spacing:0.03em;}.cls-12{letter-spacing:0.01em;}.cls-13{letter-spacing:0.03em;}.cls-14{letter-spacing:0.02em;}.cls-15{letter-spacing:0.03em;}.cls-16{letter-spacing:0.02em;}.cls-17{letter-spacing:0.02em;}.cls-18{letter-spacing:0.03em;}.cls-19{letter-spacing:0em;}.cls-20{letter-spacing:0.03em;}.cls-21{letter-spacing:0.02em;}.cls-22{fill:#00ff20;}.cls-23{font-size:5.79px;font-family:Salmond-Medium, Salmond Medium;font-weight:500;}.cls-24{letter-spacing:0.02em;}.cls-25{letter-spacing:0.02em;}.cls-26{letter-spacing:0.01em;}.cls-27{letter-spacing:0.02em;}.cls-28{letter-spacing:0.02em;}.cls-29{letter-spacing:0.01em;}</style></defs><g id="Capa_2" data-name="Capa 2"><g id="Capa_1-2" data-name="Capa 1"><path class="cls-1" d="M5.61,26.64h9.61v5.47H.14V9.31H5.61Z"/><path class="cls-1" d="M29,13.87h5.17V32.11H29V30.5a7.21,7.21,0,0,1-2,1.35,7.14,7.14,0,0,1-3,.56,7.81,7.81,0,0,1-3.11-.65,8,8,0,0,1-2.65-1.89,9.35,9.35,0,0,1-1.82-3A10.74,10.74,0,0,1,15.75,23a10.7,10.7,0,0,1,.68-3.92,9.52,9.52,0,0,1,1.82-3,7.92,7.92,0,0,1,2.65-1.88A7.64,7.64,0,0,1,24,13.57a7,7,0,0,1,3,.56,6.8,6.8,0,0,1,2,1.35ZM29,23a5.75,5.75,0,0,0-.26-1.73A4.29,4.29,0,0,0,28,19.81a3.93,3.93,0,0,0-1.3-1,4,4,0,0,0-1.77-.38,3.58,3.58,0,0,0-2.66,1.19A4.16,4.16,0,0,0,21.39,21,5.39,5.39,0,0,0,21.07,23a5.3,5.3,0,0,0,.32,1.94,4.12,4.12,0,0,0,.85,1.43,3.68,3.68,0,0,0,2.66,1.19,4,4,0,0,0,1.77-.38,3.93,3.93,0,0,0,1.3-1,4.29,4.29,0,0,0,.77-1.45A5.79,5.79,0,0,0,29,23Z"/><rect class="cls-1" x="36.67" y="15.84" width="5.17" height="16.27"/><path class="cls-1" d="M54.5,13.87V19H49.34V25a2.59,2.59,0,0,0,.47,1.77,2.27,2.27,0,0,0,1.71.51,5.63,5.63,0,0,0,.9-.07,7.12,7.12,0,0,0,.88-.2l.72-.23.42-.16,2.07,4.71L56,31.5q-.45.18-1.14.39a11.08,11.08,0,0,1-1.53.37,10.23,10.23,0,0,1-1.77.15,8.47,8.47,0,0,1-3-.53,6.48,6.48,0,0,1-2.32-1.51A6.39,6.39,0,0,1,44.69,28,8.49,8.49,0,0,1,44.17,25V13.87Z"/><text class="cls-2" transform="translate(58.84 25.12)">L<tspan class="cls-3" x="1" y="0">E</tspan><tspan x="2.07" y="0">A</tspan><tspan class="cls-4" x="3.35" y="0">D</tspan><tspan class="cls-5" x="4.73" y="0">S </tspan><tspan class="cls-6" x="6.19" y="0">I</tspan><tspan class="cls-7" x="6.72" y="0">N</tspan><tspan x="0" y="2.36">A</tspan><tspan class="cls-8" x="1.28" y="2.36">R</tspan><tspan class="cls-9" x="2.44" y="2.36">T</tspan><tspan class="cls-10" x="3.51" y="2.36">I</tspan><tspan class="cls-7" x="4.04" y="2.36">F</tspan><tspan class="cls-11" x="5.04" y="2.36">I</tspan><tspan class="cls-12" x="5.58" y="2.36">CI</tspan><tspan x="7.3" y="2.36">A</tspan><tspan class="cls-7" x="8.58" y="2.36">L</tspan><tspan class="cls-10"><tspan x="0" y="4.73">I</tspan><tspan class="cls-13" x="0.53" y="4.73">NT</tspan><tspan class="cls-14" x="3" y="4.73">ELL</tspan><tspan class="cls-15" x="6.03" y="4.73">IG</tspan><tspan class="cls-16" x="7.93" y="4.73">E</tspan><tspan class="cls-15" x="8.97" y="4.73">N</tspan><tspan class="cls-17" x="10.36" y="4.73">C</tspan><tspan class="cls-7" x="11.56" y="4.73">E</tspan></tspan><tspan class="cls-9"><tspan x="0" y="7.09">T</tspan><tspan class="cls-16" x="1.07" y="7.09">EC</tspan><tspan class="cls-18" x="3.31" y="7.09">HNO</tspan><tspan class="cls-19" x="7.54" y="7.09">L</tspan><tspan class="cls-20" x="8.5" y="7.09">O</tspan><tspan class="cls-21" x="9.96" y="7.09">G</tspan><tspan class="cls-7" x="11.31" y="7.09">Y</tspan></tspan></text><rect class="cls-22" x="39" y="9.31" width="5.17" height="4.56"/><text class="cls-23" transform="translate(0 4.85)"><tspan class="cls-24">D</tspan><tspan class="cls-25" x="4" y="0">e</tspan><tspan class="cls-26" x="7" y="0">s</tspan><tspan class="cls-27" x="9.36" y="0">i</tspan><tspan class="cls-28" x="10.82" y="0">g</tspan><tspan x="14.14" y="0">n </tspan><tspan class="cls-29" x="18.59" y="0">b</tspan><tspan x="21.95" y="0">y</tspan></text></g></g></svg>